<svg xmlns="http://www.w3.org/2000/svg" viewBox="0 0 653.65 702.63"><defs><style>.cls-1,.cls-2{fill:none;stroke:#fff;stroke-linecap:round;stroke-width:43px;}.cls-1{stroke-miterlimit:10;}.cls-2{stroke-linejoin:round;}</style></defs><g id="Capa_2" data-name="Capa 2"><g id="ELEMENTOS"><path class="cls-1" d="M325,254.52V119.21c0-54-43.35-97.71-96.82-97.71H118.32c-53.47,0-96.82,43.75-96.82,97.71V583.42c0,54,43.35,97.71,96.82,97.71H231.78c53.48,0,96.83-43.75,96.83-97.71v-26.5"/><line class="cls-1" x1="130.24" y1="25.08" x2="128.4" y2="596.52"/><line class="cls-1" x1="217.48" y1="25.08" x2="215.63" y2="596.52"/><path class="cls-2" d="M554.79,466.81C561.34,418.06,539.37,367,499,338.66c-41.85-29.35-100.14-31.81-144.33-6.14-42.66,24.78-69.08,74-66.46,123.25,2.55,47.91,32.78,92.69,75.91,113.53,44.73,21.6,100.49,15.16,139.84-14.88a128.71,128.71,0,0,0,14.83-13.26L632.15,654.05"/></g></g></svg>
