<?xml version="1.0" encoding="UTF-8"?>
<svg version="1.1" xmlns="http://www.w3.org/2000/svg" width="512" height="512">
<path d="M0 0 C0.91297852 0.16628906 1.82595703 0.33257812 2.76660156 0.50390625 C44.3986228 8.16363077 83.16052206 26.40624883 116 53 C116.54446777 53.44005371 117.08893555 53.88010742 117.64990234 54.33349609 C131.72173929 65.81174863 144.93680647 78.57719064 156 93 C156.75925781 93.93070312 157.51851563 94.86140625 158.30078125 95.8203125 C184.1596216 128.07168914 200.62794761 167.52514646 208 208 C208.16371094 208.83563477 208.32742188 209.67126953 208.49609375 210.53222656 C213.78656862 238.24163521 213.41678597 270.35093304 208 298 C207.83371094 298.91297852 207.66742188 299.82595703 207.49609375 300.76660156 C199.83636923 342.3986228 181.59375117 381.16052206 155 414 C154.55994629 414.54446777 154.11989258 415.08893555 153.66650391 415.64990234 C142.18825137 429.72173929 129.42280936 442.93680647 115 454 C114.06929688 454.75925781 113.13859375 455.51851563 112.1796875 456.30078125 C79.92831086 482.1596216 40.47485354 498.62794761 0 506 C-0.83563477 506.16371094 -1.67126953 506.32742188 -2.53222656 506.49609375 C-30.24163521 511.78656862 -62.35093304 511.41678597 -90 506 C-90.91297852 505.83371094 -91.82595703 505.66742188 -92.76660156 505.49609375 C-134.3986228 497.83636923 -173.16052206 479.59375117 -206 453 C-206.54446777 452.55994629 -207.08893555 452.11989258 -207.64990234 451.66650391 C-221.72173929 440.18825137 -234.93680647 427.42280936 -246 413 C-246.75925781 412.06929688 -247.51851562 411.13859375 -248.30078125 410.1796875 C-274.1596216 377.92831086 -290.62794761 338.47485354 -298 298 C-298.16371094 297.16436523 -298.32742188 296.32873047 -298.49609375 295.46777344 C-303.78656862 267.75836479 -303.41678597 235.64906696 -298 208 C-297.83371094 207.08702148 -297.66742188 206.17404297 -297.49609375 205.23339844 C-289.83636923 163.6013772 -271.59375117 124.83947794 -245 92 C-244.55994629 91.45553223 -244.11989258 90.91106445 -243.66650391 90.35009766 C-232.18825137 76.27826071 -219.42280936 63.06319353 -205 52 C-204.06929688 51.24074219 -203.13859375 50.48148438 -202.1796875 49.69921875 C-169.92831086 23.8403784 -130.47485354 7.37205239 -90 0 C-89.16436523 -0.16371094 -88.32873047 -0.32742188 -87.46777344 -0.49609375 C-59.75836479 -5.78656862 -27.64906696 -5.41678597 0 0 Z M-106 82 C-106.6717627 82.23444824 -107.34352539 82.46889648 -108.03564453 82.71044922 C-130.03921935 90.57005737 -152.44626334 103.50083211 -168.59375 120.55859375 C-170 122 -170 122 -172.5 123.9375 C-176.11682845 126.92138347 -178.99123061 130.41611372 -182 134 C-182.69222656 134.804375 -183.38445312 135.60875 -184.09765625 136.4375 C-211.45932788 168.86614786 -226.43269644 209.96287088 -226.375 252.375 C-226.37445618 253.06154663 -226.37391235 253.74809326 -226.37335205 254.45544434 C-226.29923388 275.02946309 -222.79723671 294.59227079 -216 314 C-215.76555176 314.6717627 -215.53110352 315.34352539 -215.28955078 316.03564453 C-207.42994263 338.03921935 -194.49916789 360.44626334 -177.44140625 376.59375 C-176 378 -176 378 -174.0625 380.5 C-171.07861653 384.11682845 -167.58388628 386.99123061 -164 390 C-163.195625 390.69222656 -162.39125 391.38445312 -161.5625 392.09765625 C-129.13385214 419.45932788 -88.03712912 434.43269644 -45.625 434.375 C-44.59518005 434.37418427 -44.59518005 434.37418427 -43.54455566 434.37335205 C-22.97053691 434.29923388 -3.40772921 430.79723671 16 424 C17.00764404 423.64832764 17.00764404 423.64832764 18.03564453 423.28955078 C40.03921935 415.42994263 62.44626334 402.49916789 78.59375 385.44140625 C80 384 80 384 82.5 382.0625 C86.11682845 379.07861653 88.99123061 375.58388628 92 372 C92.69222656 371.195625 93.38445312 370.39125 94.09765625 369.5625 C121.45932788 337.13385214 136.43269644 296.03712912 136.375 253.625 C136.37445618 252.93845337 136.37391235 252.25190674 136.37335205 251.54455566 C136.29923388 230.97053691 132.79723671 211.40772921 126 192 C125.76555176 191.3282373 125.53110352 190.65647461 125.28955078 189.96435547 C117.42994263 167.96078065 104.49916789 145.55373666 87.44140625 129.40625 C86 128 86 128 84.0625 125.5 C81.07861653 121.88317155 77.58388628 119.00876939 74 116 C72.7934375 114.96166016 72.7934375 114.96166016 71.5625 113.90234375 C39.13385214 86.54067212 -1.96287088 71.56730356 -44.375 71.625 C-45.40481995 71.62581573 -45.40481995 71.62581573 -46.45544434 71.62664795 C-67.02946309 71.70076612 -86.59227079 75.20276329 -106 82 Z " fill="#FFFFFF" transform="translate(301,3)"/>
<path d="M0 0 C0.97324219 0.86753906 1.94648438 1.73507813 2.94921875 2.62890625 C3.72652344 3.32113281 4.50382812 4.01335937 5.3046875 4.7265625 C35.73946738 33.49823965 49.75941799 73.94608488 52.13671875 114.85546875 C53.10353684 157.75802159 36.03920342 196.11636773 7.94921875 227.62890625 C7.25699219 228.40621094 6.56476563 229.18351562 5.8515625 229.984375 C-22.92011465 260.41915488 -63.36795988 274.43910549 -104.27734375 276.81640625 C-147.17989659 277.78322434 -185.53824273 260.71889092 -217.05078125 232.62890625 C-217.82808594 231.93667969 -218.60539062 231.24445313 -219.40625 230.53125 C-249.84102988 201.75957285 -263.86098049 161.31172762 -266.23828125 120.40234375 C-267.20509934 77.49979091 -250.14076592 39.14144477 -222.05078125 7.62890625 C-221.35855469 6.85160156 -220.66632813 6.07429688 -219.953125 5.2734375 C-161.41526855 -56.64811008 -61.93089095 -54.17766724 0 0 Z M-194.05078125 10.62890625 C-194.71078125 11.61890625 -195.37078125 12.60890625 -196.05078125 13.62890625 C-189.35461674 20.44077338 -182.64514367 27.23916216 -175.91815567 34.02059269 C-172.79516715 37.16970713 -169.67701159 40.32331625 -166.56933594 43.48754883 C-163.5716995 46.53939689 -160.56211475 49.5789707 -157.54375458 52.61031914 C-156.3926924 53.77064062 -155.24605013 54.93536359 -154.10388947 56.10444832 C-152.50674467 57.73773813 -150.89478415 59.35485465 -149.27832031 60.96899414 C-147.90598236 62.35798668 -147.90598236 62.35798668 -146.50592041 63.77503967 C-144.27661739 65.87520293 -144.27661739 65.87520293 -141.90423584 65.50169373 C-140.98677582 65.06966393 -140.98677582 65.06966393 -140.05078125 64.62890625 C-139.09945312 64.19835937 -138.148125 63.7678125 -137.16796875 63.32421875 C-135.02120894 62.28446279 -132.8753611 61.24282163 -130.73046875 60.19921875 C-126.30863153 58.31219267 -121.65567612 57.01037471 -117.05078125 55.62890625 C-117.05078125 30.87890625 -117.05078125 6.12890625 -117.05078125 -19.37109375 C-144.65032008 -19.37109375 -173.17974784 -7.35340281 -194.05078125 10.62890625 Z M-97.05078125 -19.37109375 C-97.05078125 5.37890625 -97.05078125 30.12890625 -97.05078125 55.62890625 C-92.10078125 57.27890625 -87.15078125 58.92890625 -82.05078125 60.62890625 C-76.86328125 63.50390625 -76.86328125 63.50390625 -74.8828125 64.80859375 C-73.11042247 65.77918918 -73.11042247 65.77918918 -71.25726318 65.47987366 C-68.08245533 64.25545484 -66.30772857 62.24419724 -63.91503906 59.83374023 C-63.41702286 59.33616211 -62.91900665 58.83858398 -62.40589905 58.32592773 C-60.76468864 56.6826305 -59.13435462 55.0289699 -57.50390625 53.375 C-56.36684631 52.23234374 -55.22912137 51.09034887 -54.09075928 49.94898987 C-51.09864649 46.94543119 -48.11565266 43.93297211 -45.13446045 40.9185791 C-42.08988191 37.84329433 -39.03677675 34.7765008 -35.984375 31.70898438 C-29.99812607 25.6905758 -24.0214828 19.66273908 -18.05078125 13.62890625 C-21.21142384 9.51485727 -24.47276066 6.63465222 -28.80078125 3.81640625 C-29.78606812 3.17010254 -29.78606812 3.17010254 -30.79125977 2.51074219 C-45.60833137 -7.00561379 -61.77250448 -14.01446237 -78.98828125 -17.74609375 C-79.75696533 -17.91399414 -80.52564941 -18.08189453 -81.31762695 -18.25488281 C-86.83517551 -19.35851171 -91.1235722 -19.37109375 -97.05078125 -19.37109375 Z M-212.05078125 27.62890625 C-229.97707077 49.90872323 -244.05078125 77.50282462 -244.05078125 106.62890625 C-218.97078125 106.62890625 -193.89078125 106.62890625 -168.05078125 106.62890625 C-166.73078125 102.00890625 -165.41078125 97.38890625 -164.05078125 92.62890625 C-162.34765625 88.63671875 -162.34765625 88.63671875 -160.80078125 85.75390625 C-160.28 84.76648438 -159.75921875 83.7790625 -159.22265625 82.76171875 C-158.8359375 82.05789062 -158.44921875 81.3540625 -158.05078125 80.62890625 C-164.94092578 73.71564131 -171.83373166 66.8050423 -178.72999477 59.89788055 C-181.93175606 56.69088978 -185.13257607 53.48297093 -188.33129883 50.27294922 C-191.41544546 47.17797605 -194.50199382 44.08541734 -197.59025764 40.99455261 C-198.77094334 39.81201224 -199.95074531 38.62858887 -201.12966728 37.44429016 C-202.77482204 35.79192808 -204.42302695 34.14266948 -206.07202148 32.49414062 C-206.56401535 31.99855148 -207.05600922 31.50296234 -207.56291199 30.99235535 C-209.47278542 28.64359521 -209.47278542 28.64359521 -212.05078125 27.62890625 Z M-3.05078125 27.62890625 C-20.54078125 45.11890625 -38.03078125 62.60890625 -56.05078125 80.62890625 C-52.58578125 88.05390625 -52.58578125 88.05390625 -49.05078125 95.62890625 C-48.06078125 99.25890625 -47.07078125 102.88890625 -46.05078125 106.62890625 C-20.97078125 106.62890625 4.10921875 106.62890625 29.94921875 106.62890625 C29.94921875 78.67705805 16.79648319 47.47617069 -3.05078125 27.62890625 Z M-138.98828125 90.50390625 C-142.70000929 94.85970874 -145.27335583 99.19083086 -147.05078125 104.62890625 C-147.24027344 105.20769531 -147.42976563 105.78648437 -147.625 106.3828125 C-150.11500676 119.51816925 -147.81868558 131.33444593 -140.42578125 142.37890625 C-133.9995552 150.70567974 -125.39846186 156.43748016 -115.05078125 158.62890625 C-101.29607451 159.97658964 -90.64088688 157.44042143 -79.5625 148.890625 C-71.64636591 141.76241095 -66.45547605 132.21224921 -65.671875 121.5390625 C-65.16753917 109.53291879 -67.30752465 100.01403221 -75.20703125 90.625 C-83.0848967 82.09620923 -92.38526507 76.88953461 -104.05078125 75.62890625 C-118.10684999 75.10062447 -129.40044869 80.44684861 -138.98828125 90.50390625 Z M-244.05078125 127.62890625 C-244.06697854 129.03934926 -244.07840333 130.44984746 -244.08789062 131.86035156 C-244.09477905 132.6458136 -244.10166748 133.43127563 -244.10876465 134.24053955 C-243.50834265 158.97223769 -229.97129455 186.15088078 -214.05078125 204.62890625 C-212.56578125 205.61890625 -212.56578125 205.61890625 -211.05078125 206.62890625 C-193.56078125 189.13890625 -176.07078125 171.64890625 -158.05078125 153.62890625 C-160.36078125 149.00890625 -162.67078125 144.38890625 -165.05078125 139.62890625 C-166.92578125 133.31640625 -166.92578125 133.31640625 -167.54296875 130.640625 C-167.86394926 128.64489269 -167.86394926 128.64489269 -169.05078125 127.62890625 C-171.39331907 127.53397903 -173.70624229 127.50330834 -176.04907227 127.51538086 C-176.78073608 127.51523483 -177.5123999 127.51508881 -178.26623535 127.51493835 C-180.69574909 127.51563758 -183.12518708 127.5234304 -185.5546875 127.53125 C-187.23477639 127.53311415 -188.91486582 127.53453806 -190.59495544 127.53553772 C-195.02551768 127.53936318 -199.45604735 127.54919369 -203.88659668 127.5602417 C-208.40421101 127.57045522 -212.92183059 127.57503521 -217.43945312 127.58007812 C-226.30991018 127.59081594 -235.18034301 127.60789269 -244.05078125 127.62890625 Z M-45.05078125 127.62890625 C-46.04078125 130.59890625 -47.03078125 133.56890625 -48.05078125 136.62890625 C-48.85692395 138.72291107 -49.68698779 140.80801681 -50.55078125 142.87890625 C-51.1540625 144.34070313 -51.1540625 144.34070313 -51.76953125 145.83203125 C-53.05078125 148.62890625 -53.05078125 148.62890625 -56.05078125 153.62890625 C-38.56078125 171.11890625 -21.07078125 188.60890625 -3.05078125 206.62890625 C1.21333423 203.21761386 3.86519356 200.32714137 6.76171875 195.87890625 C7.19258789 195.22204834 7.62345703 194.56519043 8.06738281 193.88842773 C17.58373879 179.07135613 24.59258737 162.90718302 28.32421875 145.69140625 C28.49211914 144.92272217 28.66001953 144.15403809 28.83300781 143.36206055 C29.93663671 137.84451199 29.94921875 133.5561153 29.94921875 127.62890625 C5.19921875 127.62890625 -19.55078125 127.62890625 -45.05078125 127.62890625 Z M-147.66307068 171.99235535 C-148.15146927 172.48794449 -148.63986786 172.98353363 -149.14306641 173.49414062 C-149.6602977 174.01107986 -150.17752899 174.5280191 -150.71043396 175.06062317 C-152.42501792 176.77660447 -154.13240285 178.49956967 -155.83984375 180.22265625 C-157.02482267 181.41136386 -158.21024288 182.59963172 -159.39608765 183.78747559 C-162.52078969 186.91982541 -165.63944026 190.0581343 -168.75689697 193.19769287 C-171.93718478 196.39841448 -175.1231196 199.59350397 -178.30859375 202.7890625 C-184.56155091 209.06348975 -190.80813392 215.34422249 -197.05078125 221.62890625 C-193.29190147 225.42036466 -189.67231696 228.51400797 -185.23828125 231.44140625 C-184.58811035 231.87155029 -183.93793945 232.30169434 -183.26806641 232.74487305 C-163.63223841 245.45579591 -140.61427833 254.62890625 -117.05078125 254.62890625 C-117.05078125 229.87890625 -117.05078125 205.12890625 -117.05078125 179.62890625 C-120.02078125 178.63890625 -122.99078125 177.64890625 -126.05078125 176.62890625 C-127.50714739 175.99218893 -128.95107516 175.32289261 -130.359375 174.5859375 C-131.04322266 174.23466797 -131.72707031 173.88339844 -132.43164062 173.52148438 C-133.11033203 173.16505859 -133.78902344 172.80863281 -134.48828125 172.44140625 C-141.42251721 168.21201125 -141.42251721 168.21201125 -147.66307068 171.99235535 Z M-81.66992188 173.52148438 C-82.69569336 174.04838867 -82.69569336 174.04838867 -83.7421875 174.5859375 C-84.35263916 174.9053833 -84.96309082 175.2248291 -85.59204102 175.55395508 C-89.30647855 177.17789197 -93.20490092 178.34694614 -97.05078125 179.62890625 C-97.05078125 204.37890625 -97.05078125 229.12890625 -97.05078125 254.62890625 C-90.62477519 254.62890625 -85.51120321 254.38329552 -79.42578125 252.94140625 C-78.64799316 252.76061523 -77.87020508 252.57982422 -77.06884766 252.39355469 C-54.62327092 247.01687501 -35.18948478 236.777095 -17.05078125 222.62890625 C-22.29262014 216.2835513 -28.03565741 210.48030025 -33.84765625 204.6640625 C-34.88811308 203.62038723 -35.92849677 202.57663903 -36.96881104 201.53282166 C-39.13548299 199.36019892 -41.30417399 197.18961505 -43.47412109 195.02026367 C-46.25904461 192.23544258 -49.03697802 189.44375656 -51.81327438 186.65033817 C-53.95278244 184.49974806 -56.09678294 182.3536813 -58.24210358 180.20889091 C-59.2692038 179.18060871 -60.29467841 178.15070015 -61.31850433 177.11915779 C-62.74243751 175.68548413 -64.17329317 174.25869582 -65.60449219 172.83227539 C-66.41690369 172.01843887 -67.22931519 171.20460236 -68.06634521 170.36610413 C-72.35808429 166.60906692 -77.33489862 171.24487672 -81.66992188 173.52148438 Z " fill="#FFFFFF" transform="translate(363.05078125,138.37109375)"/>
</svg>
