<svg xmlns="http://www.w3.org/2000/svg" viewBox="0 0 141.03 30.36"><defs><style>.cls-1{fill:#fff;}.cls-2{fill:#ffc700;}.cls-3{fill:#ff1c28;}</style></defs><g id="Capa_2" data-name="Capa 2"><g id="Capa_1-2" data-name="Capa 1"><g id="Capa_2-2" data-name="Capa 2"><g id="Capa_1-2-2" data-name="Capa 1-2"><rect class="cls-1" x="0.04" width="137.08" height="1.57"/><path class="cls-1" d="M91.59,8.71l-1,1.83A27.48,27.48,0,0,0,86.13,8.8a9.73,9.73,0,0,0-3.76.28,2,2,0,0,0-1.53,2.1c0,1.1.79,1.46,1.63,1.68,2,.51,3.93.94,5.89,1.42,2.64.64,3.86,2,3.92,4.36a4.7,4.7,0,0,1-3.79,4.93,12.39,12.39,0,0,1-9.4-.82,1.35,1.35,0,0,0-1.57.08C74.1,25,67.77,24.35,64.88,21.59l1.11-2a11.12,11.12,0,0,0,6.18,2,12.77,12.77,0,0,0,3-.48,2.14,2.14,0,0,0,1.59-2.2c0-1.13-.75-1.57-1.66-1.81-2.13-.57-4.31-1-6.43-1.65a4.18,4.18,0,0,1-3.22-5A4.08,4.08,0,0,1,66,9.19a5.48,5.48,0,0,1,2.52-2.26,10,10,0,0,1,8.79.53l-.82,2c-1.66-.27-3.23-.62-4.83-.74a4.65,4.65,0,0,0-2.1.58c-1.12.51-2,1.68-.47,3.08a2.64,2.64,0,0,0,.94.56,36.3,36.3,0,0,0,4,.94c.81.19,1.63.33,2.42.56a4.69,4.69,0,0,1,3.27,4.77,1.35,1.35,0,0,0,1,1.5,10.24,10.24,0,0,0,6.39.65,4.25,4.25,0,0,0,1.28-.54,1.85,1.85,0,0,0,1-2.18,2.71,2.71,0,0,0-1.43-1.45c-1.8-.6-3.67-1-5.52-1.46-.37-.1-.75-.19-1.12-.3a3.93,3.93,0,0,1-3.14-3.49,4.59,4.59,0,0,1,2.4-4.79C83.68,5.33,88.52,6,91.59,8.71Z"/><path class="cls-1" d="M137.11,28.61c.19,1.67.19,1.63-1.42,1.63-44.63,0-89.27.28-133.9,0-1.89,0-1.91.13-1.7-1.63Z"/><path class="cls-1" d="M108.11,24.44l-6.65-9.81-.22.07v9H98.5V6l9.61,13.89L117.7,6V23.73h-2.59V14.64l-.29-.09C112.63,17.79,110.43,21,108.11,24.44Z"/><path class="cls-1" d="M127.83,6.06A9,9,0,0,1,137,14.89V15a9.13,9.13,0,1,1-9.33-8.93h.16Zm6.32,9.1a6.31,6.31,0,1,0-6.35,6.3,6.43,6.43,0,0,0,6.35-6.3Z"/><rect class="cls-1" x="93.74" y="6.45" width="2.65" height="17.32"/><rect class="cls-1" x="60.82" y="10.52" width="2.67" height="13.24"/><path class="cls-2" d="M100.88,6.36a1.36,1.36,0,0,1,1-.22h12.36c.34,0,.77-.15,1,.16s-.18.63-.36.9q-3.09,4.56-6.21,9.11c-.2.3-.4.84-.88.14C105.52,13.08,103.21,9.75,100.88,6.36Z"/><path class="cls-2" d="M22,14.3c1.55,2.77,3,5.39,4.49,8,.38.66.08.82-.51.82H17.82c-.44,0-.84-.07-.51-.65Z"/><polygon class="cls-3" points="60.99 8.83 63.49 8.83 63.49 6.4 60.99 8.83"/><path class="cls-1" d="M7.18,16.18.73,5.74H4.16l4.51,7.35,4.54-7.35h3.43L10.16,16.18v8h-3Z"/><path class="cls-1" d="M55.29,8.81v15h-3v-15h-4.5V6.34l13.94.06L59.3,8.81Z"/><path class="cls-1" d="M43.65,6.45v12L29.44,5.77V18.5l-.25.07L22,5.74c-2,3.45-3.87,6.84-5.76,10.19l-4.71,8.2H15l4.5-8.67c.8-1.43,1.62-2.87,2.43-4.35.33.54.54.86.73,1.19,2,3.54,6.44,11.83,6.44,11.83h3.3c0-4.05-.14-8.24-.14-12.38l14,12.51V6.45Z"/><path class="cls-1" d="M138.91,27.26a2.58,2.58,0,1,1,2.08-3,2.76,2.76,0,0,1,0,.86A2.57,2.57,0,0,1,138.91,27.26Zm0-4.55a2,2,0,1,0,1.61,2.41,2.15,2.15,0,0,0,0-.8,2,2,0,0,0-1.62-1.61Z"/><path class="cls-1" d="M138.07,25v1h-.7V23.31h1.53a.64.64,0,0,1,.54.57.68.68,0,0,1-.41.78h0a1.83,1.83,0,0,1,.3.32c.18.3.33.62.51.95h-.72s-.05,0-.07-.07-.2-.43-.31-.64A.51.51,0,0,0,138.07,25Zm0-1.19v.71a4,4,0,0,0,.49,0c.15,0,.21-.15.2-.35s-.07-.27-.22-.29S138.24,23.82,138.07,23.81Z"/></g></g></g></g></svg>