<svg xmlns="http://www.w3.org/2000/svg" viewBox="0 0 138.21 138.31"><defs><style>.cls-1{fill:#f5c336;}</style></defs><g id="Capa_2" data-name="Capa 2"><g id="ELEMENTOS"><path class="cls-1" d="M101.74,43.77h8.58c2.61,0,3.55.94,3.56,3.56,0,3,.05,6,0,9,0,1.13.38,1.38,1.43,1.38,5.28,0,10.56,0,15.84,0,2.95,0,3.8.86,3.8,3.84q0,7.65,0,15.32c0,2.8-.89,3.71-3.66,3.71H115.68c-1.8,0-1.8,0-1.8,1.73,0,2.93,0,5.85,0,8.77,0,2.45-1,3.43-3.42,3.44-2.83,0-5.66,0-8.72,0v1.57q0,13,0,26.06c0,6.4-3.2,11.39-9,13.61a16.67,16.67,0,0,1-5.74,1c-12,.08-23.92.06-35.87,0-7.4,0-13-4.41-14.38-11.26a20.63,20.63,0,0,1-.31-3.77q0-12.76,0-25.53V94.55H28.41c-3.33,0-4.08-.75-4.08-4.08,0-2.84,0-5.68,0-8.51,0-1.14-.37-1.38-1.42-1.37-5.28,0-10.56,0-15.84,0-2.95,0-3.8-.86-3.8-3.84q0-7.65,0-15.32c0-2.8.89-3.71,3.66-3.71,5.24,0,10.48,0,15.71,0,1.26,0,1.77-.22,1.71-1.63-.13-3-.05-5.94,0-8.9,0-2.45,1-3.43,3.42-3.44,2.83,0,5.66,0,8.72,0V42.21c0-8.69,0-17.37,0-26.06,0-6.4,3.21-11.4,9-13.62a16.25,16.25,0,0,1,5.62-1q18.06-.14,36.13,0c8.63,0,14.53,6,14.56,14.62s0,17.28,0,25.92ZM60.12,131.42c1.66,0,3.19-.1,4.7,0s1.63-.39,1.63-1.68q0-43.46,0-86.92c0-.48,0-1,0-1.44a2.66,2.66,0,1,1,5.32-.06c0,.48,0,1,0,1.44v86.79a4.14,4.14,0,0,0,0,1.17c.07.26.38.63.59.63,1.86.05,3.72,0,5.66,0V7H60.12ZM41.93,120.14c0,1.31-.07,2.3,0,3.28a8.31,8.31,0,0,0,6.67,7.74,25,25,0,0,0,4.16.26c1.89,0,1.89,0,1.89-1.91V10.78c0-4.07,0-4.06-4.13-3.86C46.9,7.1,44.18,8.68,42.65,12c-.95,2.09-.86,2.29,1,3.64L45.39,17c1.89,1.41,3.8,2.78,5.66,4.23a2.75,2.75,0,0,1,.78,4c-.89,1.2-2.49,1.35-4,.33-.82-.57-1.62-1.19-2.42-1.79l-3.55-2.64v1.77c0,7.59,0,15.18,0,22.77a3,3,0,0,0,1.43,2.79c2.67,1.89,5.29,3.85,7.88,5.85A2.69,2.69,0,1,1,48,58.62c-1.67-1.19-3.3-2.45-5-3.66-.29-.22-.62-.39-1.12-.7V55.9c0,6.72.19,13.44-.08,20.15-.14,3.24.71,5.39,3.56,7a47.63,47.63,0,0,1,5.8,4.25A2.69,2.69,0,1,1,48,91.61c-.94-.64-1.83-1.34-2.74-2L42,87.19a7.56,7.56,0,0,0-.1.77c0,8.2,0,16.4,0,24.61a2,2,0,0,0,.76,1.35c2.69,2.07,5.47,4,8.14,6.15a4.55,4.55,0,0,1,1.49,2.17,2.27,2.27,0,0,1-1.16,2.57,2.73,2.73,0,0,1-3.29-.27Zm54.39-99L94.75,22.3c-1.58,1.17-3.12,2.38-4.75,3.48a2.62,2.62,0,0,1-3.63-.55,2.69,2.69,0,0,1,.4-3.67,10.16,10.16,0,0,1,1-.82c2.52-1.87,5-3.77,7.58-5.59a1.52,1.52,0,0,0,.64-1.9,8,8,0,0,0-5.89-5.92,22.61,22.61,0,0,0-4.67-.4c-1.9-.06-1.9,0-1.9,1.88V127.94c0,3.53,0,3.53,3.59,3.48,6.23-.07,10.09-4.76,9-11.1-.39.26-.75.47-1.08.72-1.58,1.16-3.14,2.36-4.74,3.5s-3,.88-4-.35-.67-2.84.78-4c.24-.19.49-.37.74-.55,2.52-1.88,5-3.77,7.57-5.61a1.9,1.9,0,0,0,.86-1.74c0-7.94,0-15.88,0-23.82,0-.36-.06-.71-.1-1.27l-1.87,1.38c-1.48,1.09-2.91,2.23-4.44,3.24a2.55,2.55,0,0,1-3.51-.6,2.66,2.66,0,0,1,.27-3.57,9,9,0,0,1,1-.84c2.58-1.93,5.2-3.82,7.74-5.81a2.5,2.5,0,0,0,.87-1.69c0-8,0-16,0-24a10,10,0,0,0-.13-1.11l-1.42,1c-1.58,1.16-3.12,2.38-4.74,3.48a2.61,2.61,0,0,1-3.63-.53,2.68,2.68,0,0,1,.36-3.66,8.93,8.93,0,0,1,1-.82c2.48-1.85,5-3.72,7.47-5.52a2.33,2.33,0,0,0,1.1-2.17c0-7.76,0-15.53,0-23.3ZM29.83,49.27V89h6.55V49.27Zm72,0V89h6.55V49.27ZM8.73,75.11c.46,0,.8.09,1.14.09,4.4,0,8.8,0,13.2,0,1.1,0,1.29-.39,1.28-1.36-.05-3.14,0-6.28,0-9.41,0-.42,0-.83-.08-1.22H8.73ZM113.93,75a2,2,0,0,0,.48.15c4.75,0,9.5,0,14.24,0,.83,0,.89-.43.89-1.07,0-3.1,0-6.19,0-9.28V63.24h-15.6Z"/><path class="cls-1" d="M6,24.87c-1.09,0-2,0-3,0C.48,24.78-.75,22.76.48,20.6q5.43-9.56,11-19a2.67,2.67,0,0,1,4.85,0q5.55,9.5,11,19.05c1.22,2.17,0,4.18-2.52,4.25-.91,0-1.82,0-2.93,0v1.61c0,4.8,0,9.6,0,14.4,0,2.6-1,3.57-3.53,3.59q-4.46,0-8.9,0C6.91,44.45,6,43.48,6,41V24.87Zm10.51,14.2v-1.6c0-4.92,0-9.85,0-14.77,0-2.16.93-3.11,3.05-3.26l.84-.09L13.9,8.12,7.47,19.26c3.55.66,3.84,1,3.84,4.6,0,4.66,0,9.33,0,14,0,.87.19,1.28,1.15,1.23C13.71,39,15,39.07,16.46,39.07Z"/><path class="cls-1" d="M116.36,113.45V98.73c0-.7,0-1.4,0-2.09.13-1.66,1-2.67,2.62-2.72,3.53-.1,7.07-.12,10.59,0,1.83.06,2.65,1.18,2.66,3.21,0,4.93,0,9.86,0,14.79v1.54c1.1,0,2.05,0,3,0,2.49.09,3.69,2.11,2.46,4.28q-5.4,9.49-10.92,18.93c-1.28,2.21-3.71,2.18-5,0q-5.43-9.33-10.78-18.71c-1.36-2.38-.17-4.42,2.56-4.47C114.44,113.44,115.31,113.45,116.36,113.45Zm1.49,5.51,6.46,11.24L130.77,119c-3.27-.35-3.87-1-3.87-4.11,0-4.71,0-9.41,0-14.12,0-.46,0-.93-.06-1.38h-5.08V101c0,4.92,0,9.85,0,14.77,0,1.8-.84,2.85-2.37,3.11C119,118.9,118.52,118.9,117.85,119Z"/><path class="cls-1" d="M71.76,31.74V5.31H66.44V31.5l0,.24a2.65,2.65,0,0,0,5.3,0Z"/></g></g></svg>