<svg xmlns="http://www.w3.org/2000/svg" viewBox="0 0 134.39 134.28"><defs><style>.cls-1{fill:#f5c336;}</style></defs><g id="Capa_2" data-name="Capa 2"><g id="ELEMENTOS"><path class="cls-1" d="M17.42,64.89c-3.34-.75-4.31-2-4.31-5.23,0-.93,0-1.86,0-2.8,0-2.94,1.24-4.37,4.31-4.84,0-1.64,0-3.33-.05-5,0-.31-.63-.7-1-.84a23.25,23.25,0,0,1-13-10.63c-4.61-8.2-4.37-16.41.41-24.5.84-1.42,2-1.79,3-1.11S7.92,11.7,7,13.17C0,24.88,5.9,39.49,19,42.81A19.74,19.74,0,1,0,13.3,6.92c-.36.23-.7.48-1.08.68A2,2,0,0,1,9.54,7a1.94,1.94,0,0,1,.7-2.75,22.37,22.37,0,0,1,9.81-4,23.68,23.68,0,0,1,27.15,20c.21,1.38.23,2.78.36,4.37l1.12-.53c21.09-10.28,41.58-9.19,60.93,4.08,13.7,9.39,21.7,22.78,24.15,39.25A58.46,58.46,0,0,1,25.1,104.73,5.59,5.59,0,0,0,24,103.35a19.4,19.4,0,0,1-6.6-15V64.89ZM50.18,95.55c-.45-.67-.71-1-1-1.42A31.74,31.74,0,0,1,43.8,71.66a32.39,32.39,0,1,1,64.06,9.54c-2.32,14.48-15,26.08-29.62,26.83-6.17.32-12.37.13-18.55.17H58.38a3.47,3.47,0,0,0,1.35,1,37.12,37.12,0,1,0-7-62.46c-1.4,1.12-2.53,1.15-3.32.11s-.48-2.13.82-3.15c9.38-7.31,20-10.29,31.74-8.54a41.1,41.1,0,0,1,34.23,48.63c-5.83,29.3-40.25,42.76-64.46,25.23a4.85,4.85,0,0,0-2.54-.82c-5.78-.24-11.59.42-17.7-.66,1.58,1.91,3,3.61,4.6,5.59a18.43,18.43,0,0,1,1.47-1.8,1.95,1.95,0,1,1,2.76,2.74,12.56,12.56,0,0,1-1.9,1.32A55.19,55.19,0,0,0,74,130.28c0-.83,0-1.46,0-2.08,0-1.39.78-2.21,1.94-2.2s1.9.83,2,2.2c0,.65,0,1.31,0,1.94,10.2.79,29-7.06,35-14.5-.83-1.3-3.29-2.34-1.45-4.25s3,.53,4.55,1.48c.26-.33.5-.68.77-1a54.17,54.17,0,0,0,13.51-31.72c.2-2.24.18-2.24-2.05-2.4a2,2,0,0,1-2.08-2,1.94,1.94,0,0,1,2.06-2c.7,0,1.4-.07,2.07-.11.94-9.74-7-28.9-14.47-34.89-1.34.82-2.42,3.37-4.36,1.36s.63-2.95,1.52-4.4A54.35,54.35,0,0,0,78,21.34c0,.55-.07.93-.09,1.3a10.53,10.53,0,0,1-.06,1.26,1.91,1.91,0,0,1-2,1.71A1.84,1.84,0,0,1,74,23.81a7.3,7.3,0,0,1,0-1.4c.07-.86-.29-1.09-1.12-1a54.08,54.08,0,0,0-25.43,8,2.52,2.52,0,0,0-1,1.23A23.78,23.78,0,0,1,31,46.24c-.32.11-.8.42-.81.65-.07,1.71,0,3.43,0,5.1,3.19.58,4.31,1.94,4.31,5,0,1.23,0,2.46,0,3.68A4,4,0,0,1,32,64.38a13.71,13.71,0,0,1-1.89.56v4.32c0,6.49,0,13,0,19.46a7.09,7.09,0,0,0,9.55,6.57.93.93,0,0,0,0-.24c-.2-.42-.43-.83-.62-1.26-6.83-15.11-5.34-29.4,4.25-42.88A5.72,5.72,0,0,1,44,50,1.95,1.95,0,0,1,47,52.39a12.26,12.26,0,0,1-.76,1,37.13,37.13,0,0,0-2.48,41c.26.43.72,1,1.11,1C46.55,95.62,48.19,95.55,50.18,95.55ZM96.81,95c-.3-.43-.56-.81-.83-1.18q-4.53-6.23-9-12.44c-.69-.94-1-1.93-.15-2.86a4,4,0,0,1,1.65-.88c4.87-1.6,9.75-3.15,14.61-4.76.41-.14,1-.68,1-1a26.23,26.23,0,0,0-3.38-10.08c-.51.16-1,.29-1.39.44-4.71,1.53-9.46,3-14.12,4.63-2.44.87-3.68-.13-3.62-2.71.12-5,0-10.08,0-15.12,0-.92-.28-1.36-1.2-1.36H71.51c-1,0-1.27.45-1.26,1.42,0,5.13,0,10.26,0,15.39,0,2.46-1,3.17-3.39,2.41L54.19,62.81l-3-1a28.69,28.69,0,0,0-3.33,9.49c-.18,1,.14,1.33,1,1.61,4.84,1.52,9.67,3.1,14.5,4.67,2.47.8,2.85,2,1.35,4-3,4.12-6,8.22-9,12.35a6.19,6.19,0,0,0-.54,1.2,4.93,4.93,0,0,0,1.28.33c3.64,0,7.29,0,10.93,0a1.93,1.93,0,0,0,1.79-.92c1.61-2.29,3.28-4.53,4.92-6.79.63-.86,1.43-1.43,2.49-.91A3.93,3.93,0,0,1,78,88.24c3,4.13,6,8.29,9.06,12.43.33.45.55,1.1,1.38.69A27.89,27.89,0,0,0,96.81,95ZM21.38,64.84v1.37c0,7.41,0,14.82,0,22.24a15.41,15.41,0,0,0,15.86,15.8c11.14,0,22.28,0,33.43,0a6.61,6.61,0,0,0,1.26-.07,2.33,2.33,0,0,0,2-2.3,2.26,2.26,0,0,0-2-2.3,10,10,0,0,0-1.64-.09q-16.27,0-32.54,0a15.19,15.19,0,0,1-3.16-.23c-5.16-1.07-8.47-5.37-8.49-11,0-7.29,0-14.57,0-21.86V64.84ZM66.3,49.07a28.08,28.08,0,0,0-12.87,9.36L66.3,62.59ZM60.42,80.84,47.5,76.63a28.35,28.35,0,0,0,4.92,15.21Zm39,11a28.41,28.41,0,0,0,4.9-15.21L91.4,80.85ZM85.54,62.6l12.87-4.18A28.23,28.23,0,0,0,85.54,49.1Zm-55-1.88c0-1.19-.05-2.32,0-3.45.07-1-.28-1.23-1.22-1.22-3.72.05-7.44,0-11.17,0a7.46,7.46,0,0,0-.95.1v4.54ZM84,103.21,75.91,92.1l-2.62,3.6c3.83,1.68,5.15,4.48,4.24,8.59ZM26,52.05V47.4h-4.5v4.65Z"/><path class="cls-1" d="M38.76,23.62a15,15,0,1,1-15-15A15,15,0,0,1,38.76,23.62Zm-5.5,5.57a11,11,0,0,0-17.58-13c-3.4,3.64-4,10-1.24,13.11a15.81,15.81,0,0,1,8-3.16,2.24,2.24,0,0,0,1.14-.72c1.67-1.63,3.3-3.29,4.95-4.93,1.09-1.08,2.27-1.18,3.12-.31s.76,2-.36,3.11S29.1,25.33,28,26.41ZM17.14,32.37c3.18,3.1,10,3.1,13.25,0C27.2,29.23,20.26,29.23,17.14,32.37Z"/><path class="cls-1" d="M82.21,75.85a6.32,6.32,0,0,1-12.63-.1,6.32,6.32,0,1,1,12.63.1Zm-6.36-2.4a2.37,2.37,0,0,0-2.3,2.37A2.34,2.34,0,0,0,76,78.13a2.3,2.3,0,0,0,2.22-2.42A2.34,2.34,0,0,0,75.85,73.45Z"/></g></g></svg>