<svg xmlns="http://www.w3.org/2000/svg" viewBox="0 0 151.06 133.52"><defs><style>.cls-1{fill:#f5c336;}</style></defs><g id="Capa_2" data-name="Capa 2"><g id="ELEMENTOS"><path class="cls-1" d="M49.18,36.16c.56,3.52-.72,7.43-2.65,11.54C40,61.63,40.73,75.52,48.05,89.09a9.66,9.66,0,0,1,1.09,4c.14,3.78,0,7.56.06,11.34a4.1,4.1,0,0,1-2.13,3.81c-4.71,2.91-9.38,5.89-14.09,8.79a7,7,0,0,1-9.87-2,79,79,0,0,1-12-23.3,2.87,2.87,0,0,0-2-2.16C7.5,89.14,6,88.45,4.45,87.87a3.79,3.79,0,0,1-2.55-3,87.32,87.32,0,0,1,0-36.28,3.75,3.75,0,0,1,2.45-2.91c2.06-.83,4.6-1.21,6-2.67s1.58-4,2.37-6A80.09,80.09,0,0,1,23.25,18.27a6.91,6.91,0,0,1,9.5-1.91c4.87,2.95,9.66,6,14.5,9A3.86,3.86,0,0,1,49.19,29C49.16,31.06,49.18,33.13,49.18,36.16Zm-20.1,75.11c4.26-2.68,8.4-5.27,12.5-7.92a1.62,1.62,0,0,0,.56-1.18c0-2.88,0-5.75,0-8.62a3.91,3.91,0,0,0-.53-1.63q-13.08-25.17,0-50.32a4.22,4.22,0,0,0,.53-1.78q.07-4.16,0-8.3a1.8,1.8,0,0,0-.58-1.33c-4.1-2.64-8.25-5.21-12.36-7.78-3.36,3.23-9.95,15.52-10.58,19.76h4.12c5.72,0,8.78,4,7.34,9.56a58.88,58.88,0,0,0,0,30.14c1.41,5.45-1.67,9.45-7.29,9.49-1.4,0-2.8,0-4.42,0A70.09,70.09,0,0,0,29.08,111.27Zm-5.7-61.9a23.71,23.71,0,0,0-14.09,2,2,2,0,0,0-1,1.28,79.11,79.11,0,0,0,0,28.25,2.14,2.14,0,0,0,1,1.29c4.37,2.46,9.12,2.42,14.11,2a71.06,71.06,0,0,1-2.32-17.36A72.43,72.43,0,0,1,23.38,49.37Z"/><path class="cls-1" d="M151.06,66.07c-.09,33.94-24.24,62-57.13,66.7-18.22,2.63-34.85-1.65-49.69-12.64-2.29-1.7-2.83-3.78-1.48-5.55s3.37-1.8,5.62-.12a59.16,59.16,0,0,0,37.59,12A59.7,59.7,0,0,0,96.68,8.38C79.36,4.7,63.4,8.29,49,18.62c-.39.28-.76.58-1.17.84a3.5,3.5,0,0,1-4.94-.85,3.44,3.44,0,0,1,.85-4.82A63.46,63.46,0,0,1,58.59,5.15C86.11-6,116.27,1.28,135.47,23.94A64.91,64.91,0,0,1,151.06,66.07Z"/><path class="cls-1" d="M83.89,31.64a35.13,35.13,0,1,1-34.7,35.11C49.13,47.63,64.89,31.69,83.89,31.64Zm.3,63.21a28.09,28.09,0,1,0-28-28.29A28.07,28.07,0,0,0,84.19,94.85Z"/><path class="cls-1" d="M125.85,43.69c-1.89-.13-3.17-.17-4.43-.3a3.48,3.48,0,0,1-3.33-3.74,3.43,3.43,0,0,1,3.64-3.24c1.32,0,2.65.09,4,.22,2.38.22,3.8,1.71,3.65,3.75A3.46,3.46,0,0,1,125.85,43.69Z"/><path class="cls-1" d="M54,28c.1-1.09.14-2.1.3-3.09a3.43,3.43,0,0,1,3.63-3.06,3.47,3.47,0,0,1,3.34,3.57A35.32,35.32,0,0,1,60.9,30,3.49,3.49,0,0,1,54,29.52C53.94,29,54,28.46,54,28Z"/><path class="cls-1" d="M103.42,28.38c-1.92-.13-3-.87-3.58-2.3a3,3,0,0,1,1-3.74,25.21,25.21,0,0,1,5.4-2.69,3,3,0,0,1,3.67,1.57,3,3,0,0,1-.24,3.86C107.85,26.92,105.44,27.67,103.42,28.38Z"/><path class="cls-1" d="M137,64c0,3.06-2.68,4.73-5,3.54a27.07,27.07,0,0,1-4.25-2.79,3.33,3.33,0,0,1-.72-4.33,3.19,3.19,0,0,1,4.08-1.54,29.66,29.66,0,0,1,5,3.33C136.7,62.66,136.86,63.65,137,64Z"/><path class="cls-1" d="M107.57,105.82c0-.51,0-1.37.15-2.21a3.48,3.48,0,0,1,3.79-3.08,3.39,3.39,0,0,1,3.17,3.53,38.43,38.43,0,0,1-.25,4.29,3.47,3.47,0,0,1-3.88,3.31,3.56,3.56,0,0,1-3.14-3.92C107.43,107.21,107.5,106.68,107.57,105.82Z"/><path class="cls-1" d="M85.5,18a12.61,12.61,0,0,1-4.28,6.15c-1.31.9-2.78.48-4-.58a3.32,3.32,0,0,1-.66-4.09,34,34,0,0,1,2.73-4.1,3.2,3.2,0,0,1,3.87-1C84.73,14.87,85.39,16.06,85.5,18Z"/><path class="cls-1" d="M127.38,92.83a8,8,0,0,1-2.2-1.68A21,21,0,0,1,123,86.9a3.47,3.47,0,0,1,6.24-3,33.12,33.12,0,0,1,2,4.14C132.25,90.43,130.56,92.84,127.38,92.83Z"/><path class="cls-1" d="M61.56,114a3.3,3.3,0,0,1-3-2.19,2.92,2.92,0,0,1,.85-3.75A25.91,25.91,0,0,1,65,105.31,2.94,2.94,0,0,1,68.52,107a3.29,3.29,0,0,1-.2,3.75C67.58,111.76,63.05,114,61.56,114Z"/><path class="cls-1" d="M86.7,119.7c-2.53-.27-4.29-2.74-3.25-5A22.13,22.13,0,0,1,86.61,110a3.44,3.44,0,0,1,5.58,3.75A30.25,30.25,0,0,1,89,118.48C88.49,119.1,87.48,119.3,86.7,119.7Z"/><path class="cls-1" d="M31.64,38.64a3.5,3.5,0,1,1,3.47-3.43A3.55,3.55,0,0,1,31.64,38.64Z"/><path class="cls-1" d="M31.62,94.9a3.49,3.49,0,1,1-3.49,3.4A3.52,3.52,0,0,1,31.62,94.9Z"/><path class="cls-1" d="M98.36,66.7a14,14,0,1,1-14.07-14A14.07,14.07,0,0,1,98.36,66.7Zm-7,0a7,7,0,1,0-6.91,7.06A7,7,0,0,0,91.32,66.71Z"/><path class="cls-1" d="M99.3,55.32A3.39,3.39,0,0,1,95.75,52a3.51,3.51,0,0,1,3.4-3.68,3.62,3.62,0,0,1,3.6,3.53A3.5,3.5,0,0,1,99.3,55.32Z"/><path class="cls-1" d="M72.88,81.72a3.51,3.51,0,0,1-3.43,3.48,3.63,3.63,0,0,1-3.57-3.56,3.52,3.52,0,0,1,3.64-3.43A3.39,3.39,0,0,1,72.88,81.72Z"/><path class="cls-1" d="M95.75,81.65a3.4,3.4,0,0,1,3.43-3.45,3.52,3.52,0,0,1,3.57,3.51,3.63,3.63,0,0,1-3.48,3.49A3.51,3.51,0,0,1,95.75,81.65Z"/><path class="cls-1" d="M72.88,51.78a3.4,3.4,0,0,1-3.49,3.55,3.52,3.52,0,0,1-3.51-3.41,3.62,3.62,0,0,1,3.54-3.59A3.5,3.5,0,0,1,72.88,51.78Z"/><path class="cls-1" d="M87.8,45.7a3.49,3.49,0,1,1-3.43-3.5A3.52,3.52,0,0,1,87.8,45.7Z"/><path class="cls-1" d="M63.23,70.25a3.49,3.49,0,1,1,3.5-3.44A3.52,3.52,0,0,1,63.23,70.25Z"/><path class="cls-1" d="M105.47,70.25a3.49,3.49,0,1,1,3.41-3.52A3.53,3.53,0,0,1,105.47,70.25Z"/><path class="cls-1" d="M84.31,91.33a3.49,3.49,0,1,1,3.49-3.44A3.53,3.53,0,0,1,84.31,91.33Z"/></g></g></svg>