<svg xmlns="http://www.w3.org/2000/svg" viewBox="0 0 139 151.3"><defs><style>.cls-1{fill:#f5c336;}</style></defs><g id="Capa_2" data-name="Capa 2"><g id="ELEMENTOS"><path class="cls-1" d="M139,100.32V73c0-6.17,0-12.55,0-18.83A12.54,12.54,0,0,0,135.54,45a12.65,12.65,0,0,0-9.18-3.44h-30A11.95,11.95,0,0,0,83.66,54.27V77.13l-1.38.13-.32,0a21.62,21.62,0,0,1-.12-2.64V74c0-.57,0-1.15,0-1.75A13.89,13.89,0,0,0,67.4,57.75c-.82,0-1.69,0-2.72,0H60.24c-.85,0-1.56,0-2.24,0H56.89c-.74,0-1.38,0-1.91,0,0-.35,0-.73,0-1.1v-1l3.31,0c1.58,0,3.16,0,4.7-.06,7-.18,12.12-5.13,12.26-11.77.2-10.18.21-20.58,0-31.8A12,12,0,0,0,63.08.07C55.59,0,48,0,40.57,0,32.71,0,24.78,0,17,.08A12.47,12.47,0,0,0,8.41,3.41a12,12,0,0,0-3.64,8.53c-.21,10.68-.21,21.38,0,31.8a11.64,11.64,0,0,0,3.76,8.6,13.1,13.1,0,0,0,8.69,3.26c.57,0,1.18,0,1.92,0h3l1.78,0,1.38,0,1.56,0v.17c0,.51,0,1.17,0,1.93-1.61,0-3.31,0-5.31,0l-5.93,0h-.2c-4.83,0-8.65,1.41-11.36,4.1S0,68.32,0,73.14C0,80.5,0,88,0,95.23v.4c0,3,0,5.93,0,8.89,0,3.29,0,6.57,0,9.85,0,7.14,0,14.51,0,21.84,0,4.54,1.44,8.34,4.11,11s6.51,4.06,11.07,4.07h51c5,0,8.86-1.35,11.55-4s4.06-6.52,4.07-11.48c0-5.43,0-11,0-16v-.12c0-6.45,0-13.13,0-19.7,0-.76,0-1.41,0-2v-.16h.41l1.41,0v29.76a11.95,11.95,0,0,0,12.68,12.71h30A11.86,11.86,0,0,0,139,127.72c0-6.44,0-13,0-19.32ZM78.31,94.45c-.64.66-.63,1.66-.6,3.65,0,.56,0,1.19,0,1.92,0,6.62,0,13.34,0,19.85,0,5.22,0,10.62,0,15.93,0,7.64-3.78,11.35-11.49,11.36h-51c-7,0-11-4-11-11,0-7.28,0-14.68,0-21.83,0-3.28,0-6.57,0-9.85,0-2.92,0-5.85,0-8.77,0-7.41,0-15.07,0-22.61,0-7.34,3.94-11.25,11.35-11.29h.11l6,0c2.32,0,4.34,0,6.19.05h.15a3.31,3.31,0,0,0,2.41-.77,3.12,3.12,0,0,0,.71-2.41c0-1.15,0-2.12,0-2.9,0-3.24,0-4.33-2.74-4.33l-1.07,0c-.54,0-1.16,0-1.88,0l-1.27,0-1.89,0h-3c-.7,0-1.28,0-1.82,0-5-.12-8.33-3.19-8.42-7.81-.21-10.38-.2-21,0-31.64C9,7.45,12.33,4.24,17,4.21c7.78,0,15.7-.08,23.54-.08,7.4,0,15,0,22.48.07a8,8,0,0,1,8.09,7.89c.19,11.17.18,21.53,0,31.65-.09,4.42-3.48,7.59-8.24,7.72-1.51,0-3.05.06-4.59.06s-3,0-4.47-.05a2.92,2.92,0,0,0-2.29.69,2.83,2.83,0,0,0-.68,2.13v2.32c0,2.71,0,4,.7,4.67a3,3,0,0,0,2.28.61l1.13,0c.8,0,1.76,0,2.95,0l2.33,0h4.44c1,0,1.84,0,2.61,0,6.48.16,10.27,4,10.41,10.43,0,.55,0,1.12,0,1.66v.67c0,4,.29,6.78,4,6.78H82c0,3.6.06,7.24.11,10.77l0,1.55C80,93.76,79,93.78,78.31,94.45Zm41-34.52c0-1.73-.66-2.57-2-2.57h0a2,2,0,0,0-2,1.83,8.07,8.07,0,0,0,0,.85v76.22h-7.84v-7.53c0-2.6,0-5.3,0-7.95,0-1.4-.72-2.2-2-2.2h0c-1.25,0-2,.81-2,2.22v15.3c-1,0-2,0-3,.06a43.33,43.33,0,0,1-6.67-.15c-3.42-.42-6.09-3.8-6-7.53h1.45c1.26,0,2.57,0,3.86,0a2.27,2.27,0,0,0,1.57-.4,3,3,0,0,0,.82-2,1.73,1.73,0,0,0-1.84-1.6c-1,0-2.09,0-3.12,0H87.77v-7.84h5a8.35,8.35,0,0,0,1,0,2,2,0,0,0,1.86-2,2,2,0,0,0-2-1.91c-1.34,0-2.66,0-4,0H87.8v-7.85h1.46c1.26,0,2.56,0,3.84,0a2.76,2.76,0,0,0,1.75-.55,2.68,2.68,0,0,0,.6-1.92,1.72,1.72,0,0,0-1.81-1.49c-1,0-2.11,0-3.14,0H87.77V92.94h1.52c1.32,0,2.57,0,3.84,0A2.75,2.75,0,0,0,95,92.26a2.65,2.65,0,0,0,.44-2A1.74,1.74,0,0,0,93.48,89c-1.32,0-2.61,0-4,0H87.8V81.1h1.47c1.25,0,2.56,0,3.84,0a2.79,2.79,0,0,0,1.75-.56,2.71,2.71,0,0,0,.59-1.92,1.72,1.72,0,0,0-1.82-1.48c-1.07,0-2.16,0-3.22,0H87.77V69.25h1.52c1.33,0,2.58,0,3.85,0A2.75,2.75,0,0,0,95,68.56a2.68,2.68,0,0,0,.43-2,1.76,1.76,0,0,0-1.93-1.34H87.8V57.41h1.66c1.28,0,2.6,0,3.89,0a2.31,2.31,0,0,0,1.93-.93,1.8,1.8,0,0,0,.17-1.69,2.06,2.06,0,0,0-2.17-1.37H87.67c0-.27.08-.53.11-.79a8.24,8.24,0,0,1,.29-1.54c1.08-3.21,3.28-5.07,6.37-5.37a52,52,0,0,1,6.14-.1c.93,0,1.89,0,2.86,0v66.56a2.59,2.59,0,0,0,.66,2,1.9,1.9,0,0,0,1.47.44,1.83,1.83,0,0,0,1.82-1.76,4.72,4.72,0,0,0,0-.84V45.63h7.84V51a2.66,2.66,0,0,0,.63,1.94,1.91,1.91,0,0,0,1.39.5h0c1.29,0,2-.88,2-2.46V45.71l.21-.06a1.4,1.4,0,0,1,.37-.07l2.18,0c1.8,0,3.66,0,5.48,0A7.91,7.91,0,0,1,133,48.2a7.17,7.17,0,0,1,1.91,5.21h-4.77a10.66,10.66,0,0,0-1.13,0,2,2,0,0,0-1.86,2,1.93,1.93,0,0,0,1.92,2c1.09,0,2.21,0,3.28,0H134l.65,0,.4,0v7.78H130.2c-.33,0-.68,0-1,0a2,2,0,0,0-2,2,1.93,1.93,0,0,0,2,2c1.71.06,3.28.06,4.78,0a1.21,1.21,0,0,1,.91.21,1.24,1.24,0,0,1,.22.9c-.05,1.55,0,3.09,0,4.72,0,.66,0,1.34,0,2h-4.92a3.48,3.48,0,0,0-2.49.69,1.73,1.73,0,0,0-.47,1.32c0,1.35.94,2,3,2l4.55,0a.37.37,0,0,1,.15,0l.13,0V89h-5.74a1.89,1.89,0,0,0-2,1.7,1.82,1.82,0,0,0,1.34,2.16,3.45,3.45,0,0,0,1.11.13H132c.58,0,1.19,0,1.79,0,.26,0,.52,0,.8,0l.38,0v7.77h-4.44a14.26,14.26,0,0,0-1.46,0,2,2,0,0,0,.08,4c.67,0,1.35,0,2,0h3.79v7.84H133.4c-1.29,0-2.62,0-3.92,0a2.74,2.74,0,0,0-1.87.81,2.17,2.17,0,0,0-.19,2,2.61,2.61,0,0,0,1.79,1.13,23.48,23.48,0,0,0,3.14.07H135v7.84h-5.14a5.71,5.71,0,0,0-1.09.07,2,2,0,0,0-1.58,2.13,1.94,1.94,0,0,0,2,1.78c1.07,0,2.15,0,3.2,0h2.6a7.46,7.46,0,0,1-6.6,7.69,47,47,0,0,1-6.19.12c-.92,0-1.88,0-2.83,0V59.93Z"/><path class="cls-1" d="M39.6,44h21c4.2,0,6-1.8,6-6,0-7.68,0-15.34,0-22.75,0-4.2-1.86-6.08-5.95-6.09L41,9.19c-7.26,0-14.54,0-21.66,0-4,0-5.8,1.82-5.82,5.87-.05,7.53-.06,15.28,0,23,0,4.23,1.72,5.88,6,5.9H39.6ZM33,40.12H19.53a4.64,4.64,0,0,1-1.91-.26,4.29,4.29,0,0,1-.24-1.75c-.05-7.73,0-15.46,0-23,0-1.38.27-1.72.27-1.72s.33-.26,1.66-.27c7.06,0,14.34,0,21.64,0l19.66,0a3.36,3.36,0,0,1,1.72.29s.32.37.33,1.91c0,7.4,0,15,0,22.71a3.52,3.52,0,0,1-.29,1.77s-.36.3-1.83.31H33Z"/><path class="cls-1" d="M73,104.85V96c0-7,0-14.21,0-21.32C73,69.31,70.65,67,65.23,67H45.36L16.64,67c-5.38,0-7.79,2.39-7.79,7.71,0,19.47,0,39.57,0,59.76,0,5.41,2.37,7.82,7.68,7.83H65.39c5.24,0,7.58-2.34,7.58-7.57,0-7.3,0-14.73,0-21.91ZM69,134.73c0,2-.43,2.7-.69,3s-1,.68-3,.68l-24.79,0-24.07,0c-1.92,0-2.7-.39-3-.71s-.73-1.17-.73-3.18c0-20.22,0-40.32,0-59.76,0-1.93.39-2.72.72-3S14.66,71,16.65,71c9.53,0,19.19,0,28.71,0H65.22c2.13,0,2.88.43,3.14.68s.67,1,.68,3.08c0,7.15,0,14.36,0,21.34v8.81c0,2.65,0,5.29,0,7.94v.42C69.05,120.26,69.05,127.56,69,134.73Z"/><path class="cls-1" d="M26.33,101.42c4.89,0,9.9,0,14.87,0s9.76,0,14.55,0A8.46,8.46,0,0,0,61.89,99a7.39,7.39,0,0,0,2-5.43c-.14-4.33-3.45-7.28-8.24-7.32-3.53,0-7.21,0-10.46,0H36.33c-3.22,0-6.54,0-9.82,0-5,0-8.34,3-8.42,7.44a7.31,7.31,0,0,0,2,5.33A8.5,8.5,0,0,0,26.33,101.42Zm.22-11.28c1.71,0,3.58,0,5.88,0H45.21c3.41,0,6.94,0,10.41,0,2.72,0,4.31,1.32,4.39,3.55a3.5,3.5,0,0,1-.93,2.61,4.63,4.63,0,0,1-3.36,1.23c-9.74.08-19.62.08-29.36,0a4.75,4.75,0,0,1-3.45-1.23A3.43,3.43,0,0,1,22,93.75C22,90.64,24.87,90.15,26.55,90.14Z"/><path class="cls-1" d="M55.73,121c-9.49-.06-19.4-.06-29.43,0a8.51,8.51,0,0,0-6.16,2.42,7.44,7.44,0,0,0-2.06,5.4c.1,4.39,3.38,7.38,8.17,7.42,3.29,0,6.63,0,9.87,0H49.81l5.88,0c4.8-.05,8.1-3,8.22-7.38a7.46,7.46,0,0,0-2.06-5.42A8.48,8.48,0,0,0,55.73,121Zm-.07,11.35c-3.49,0-7,0-10.48,0H36.25c-3.27,0-6.64,0-10,0-2.65,0-4.26-1.38-4.31-3.62a3.51,3.51,0,0,1,.95-2.59,4.7,4.7,0,0,1,3.39-1.25c10,0,19.91,0,29.38,0A4.57,4.57,0,0,1,59,126.13a3.46,3.46,0,0,1,1,2.6C60,130.92,58.28,132.3,55.66,132.32Z"/><path class="cls-1" d="M55.71,103.62c-3.4,0-6.85,0-10.19,0H36.7c-3.42,0-7,0-10.44,0-4.8,0-8.08,3-8.17,7.44a7.42,7.42,0,0,0,2.05,5.41,8.52,8.52,0,0,0,6.14,2.39c4.78,0,9.65,0,14.48,0,5,0,10,0,15,0,4.72,0,8.1-3.09,8.2-7.46a7.35,7.35,0,0,0-2-5.33A8.6,8.6,0,0,0,55.71,103.62Zm0,11.34c-9.74,0-19.63,0-29.39,0a4.68,4.68,0,0,1-3.37-1.22,3.55,3.55,0,0,1-.95-2.61c.05-2.24,1.66-3.59,4.32-3.63,1.74,0,3.62,0,5.91,0H45.53c3.31,0,6.74,0,10.14,0a4.75,4.75,0,0,1,3.41,1.27,3.42,3.42,0,0,1,.94,2.53C60,113.52,58.27,115,55.69,115Z"/><path class="cls-1" d="M53.42,84.34h.23a5.69,5.69,0,0,0,3.93-1.56,5.9,5.9,0,0,0,.18-8.35,5.66,5.66,0,0,0-4.07-1.73h0a5.91,5.91,0,0,0-5.84,5.85A6,6,0,0,0,53.42,84.34Zm-2-8a3.19,3.19,0,0,1,2.22-1h0a3.1,3.1,0,0,1,2.18.92,3.19,3.19,0,0,1,.89,2.31,3.13,3.13,0,0,1-1,2.25,3,3,0,0,1-2.1.83h-.13a3.27,3.27,0,0,1-3-3.14A3.12,3.12,0,0,1,51.43,76.33Z"/><path class="cls-1" d="M26.4,84.34h.09a5.82,5.82,0,0,0,0-11.64h-.07a5.83,5.83,0,0,0-4.11,9.86A5.75,5.75,0,0,0,26.4,84.34Zm.07-9h0a3.25,3.25,0,0,1,3.16,3.18,3.08,3.08,0,0,1-.95,2.2,3.17,3.17,0,0,1-2.24.93h0a3.14,3.14,0,0,1-2.19-1,3.16,3.16,0,0,1,2.22-5.35Z"/><path class="cls-1" d="M39.9,84.33h.16a5.93,5.93,0,0,0,5.84-5.72,5.75,5.75,0,0,0-1.7-4.12,5.81,5.81,0,0,0-4.12-1.79h0a5.83,5.83,0,0,0-4.23,9.79A5.69,5.69,0,0,0,39.9,84.33Zm.18-9h0a3.17,3.17,0,0,1,2.22,1,3,3,0,0,1-.07,4.41,3.15,3.15,0,0,1-2.17.9H40a3,3,0,0,1-2.17-1,3.16,3.16,0,0,1,2.27-5.31Z"/></g></g></svg>