<svg xmlns="http://www.w3.org/2000/svg" viewBox="0 0 133.3 148.04"><defs><style>.cls-1{fill:#f5c336;stroke:#f7d060;stroke-miterlimit:10;stroke-width:0.25px;}</style></defs><g id="Capa_2" data-name="Capa 2"><g id="ELEMENTOS"><path class="cls-1" d="M69.08,76.46c5,0,9.76.19,14.51-.1a4.28,4.28,0,0,0,4-2.9c.24-.79.63-1.53,1.12-2.69-1.45,0-2.63,0-3.8,0C83,70.7,82,69.73,82,68.24s1.17-2.46,3-2.41q12.75.38,25.5.79c1.8,0,3,1.07,3,2.51s-1.21,2.48-3.11,2.46c-1.39,0-2.79,0-4.17-.16A1.75,1.75,0,0,0,104,72.7c-.71,1.85-1.63,3.63-2.35,5.48a2.31,2.31,0,0,0,.13,1.75c2.94,5.29,2.24,11.21-1.88,15.21a12.28,12.28,0,0,1-15.26,1.58,2.66,2.66,0,0,0-1.2-.52c-4.28,0-8.55,0-12.83,0-.44,0-.88,0-1.53.07V98q0,17.08,0,34.18c0,9.47-6.22,15.68-15.72,15.69H15.9C6.36,147.9.13,141.64.13,132.09q0-45.75,0-91.49C.13,31,6.36,24.78,15.89,24.78q18.74,0,37.46,0c9.52,0,15.72,6.18,15.73,15.66q0,17,0,34ZM29.68,142.9h9.85V48.23c0-.5,0-1,0-1.49A2.4,2.4,0,0,1,42,44.48c1.66,0,2.48,1.05,2.48,3.17v95.23a108.44,108.44,0,0,0,11.28-.08,9.34,9.34,0,0,0,8.27-9.66H62.46c-1.89,0-3.78,0-5.67,0a2.43,2.43,0,0,1-.47-4.82,8.07,8.07,0,0,1,1.63-.08h6.16v-9.85H62.42a50.59,50.59,0,0,1-5.51-.07,3.26,3.26,0,0,1-2.21-1.39,2.73,2.73,0,0,1,.24-2.43,3.39,3.39,0,0,1,2.3-1c2.27-.13,4.55,0,6.85,0v-9.86H60.4c-1.19,0-2.39,0-3.58,0a2.44,2.44,0,0,1-.09-4.88c.84-.07,1.69,0,2.53,0h4.86V88.9c-.55,0-1-.09-1.51-.09-1.7,0-3.39,0-5.08,0a4.81,4.81,0,0,1-1.47-.16A2.26,2.26,0,0,1,54.41,86a2.33,2.33,0,0,1,2.5-2.09c2.38,0,4.75,0,7.19,0V74.17a2.08,2.08,0,0,0-.38-.12l-5.67,0c-2.52,0-3.68-.77-3.68-2.45s1.15-2.47,3.67-2.47c2,0,4,0,6.16,0,0-3,0-5.72,0-8.45,0-1.13-.34-1.47-1.44-1.43-2,.08-4,.07-6,0a2.4,2.4,0,0,1-2.45-2.47,2.44,2.44,0,0,1,2.51-2.42c.59,0,1.19,0,1.79,0H64.2V44.55c-.57,0-1-.07-1.35-.07-2,0-4.08,0-6.11,0a2.37,2.37,0,0,1-2.37-2.39,2.41,2.41,0,0,1,2.29-2.48c.64-.06,1.29,0,1.94,0h5.45c.3-5.06-4-9.58-9.24-9.8-3.18-.13-6.36,0-9.55,0a4.12,4.12,0,0,0-.76.17c0,2.25,0,4.44,0,6.62,0,2-.88,3-2.48,3s-2.48-1-2.49-3V29.79H29.68v82.42a12.51,12.51,0,0,1,0,1.5,2.23,2.23,0,0,1-2.24,2.15c-1.71.13-2.62-.92-2.62-3V29.81c-3.93,0-7.63-.27-11.27.08-4,.39-6.68,2.88-8,6.71a21.11,21.11,0,0,0-.51,3h7a2.57,2.57,0,0,1,2.71,1.69c.62,1.64-.6,3.19-2.59,3.23-2.32,0-4.64,0-7,0v9.85c2.45,0,4.79,0,7.12,0A2.17,2.17,0,0,1,14.7,56a3.28,3.28,0,0,1-.53,2.42,3.46,3.46,0,0,1-2.26.82c-2.21.1-4.44,0-6.73,0v9.86c.61,0,1.14,0,1.67,0,1.89,0,3.78,0,5.67,0A2.12,2.12,0,0,1,14.77,71,3.41,3.41,0,0,1,14,73.32a3.33,3.33,0,0,1-2.17.68c-2.22.08-4.44,0-6.65,0v9.86c2.45,0,4.79,0,7.12,0a2.17,2.17,0,0,1,2.37,1.66A3.31,3.31,0,0,1,14.16,88a3.46,3.46,0,0,1-2.26.81c-2.21.1-4.44,0-6.72,0v9.85H7c1.84,0,3.68,0,5.52,0a2.12,2.12,0,0,1,2.24,1.82,3.42,3.42,0,0,1-.74,2.37,3.27,3.27,0,0,1-2.17.67c-2.22.09-4.44,0-6.64,0v9.87c2.51,0,4.9,0,7.28,0a2.45,2.45,0,0,1,2.43,2.36,2.49,2.49,0,0,1-2.29,2.5,12.83,12.83,0,0,1-1.64,0H5.18v9.85H7c1.84,0,3.68,0,5.52,0a2.13,2.13,0,0,1,2.27,2,3.88,3.88,0,0,1-1,2.42,3,3,0,0,1-1.94.49c-2.22,0-4.45,0-6.66,0-.15,4.51,3,8.9,7.48,9.46,3.94.49,8,.1,12.13.1v-1.5c0-5.87,0-11.74,0-17.62,0-1.75.9-2.73,2.43-2.73s2.44,1,2.44,2.72c0,4.57,0,9.15,0,13.73ZM83.91,86.42A7.35,7.35,0,1,0,91.27,79,7.39,7.39,0,0,0,83.91,86.42Zm-4,4.78a12.94,12.94,0,0,1,0-9.67H69.21V91.2Zm19.4-20.12c-1.79,0-3.26,0-4.74,0a1.12,1.12,0,0,0-.8.49c-.41.77-.71,1.6-1.07,2.42l4.67,1.5Z"/><path class="cls-1" d="M120.21,35.52l-1.74,4c1.45,0,2.61,0,3.77,0,2,.07,3,1,2.93,2.62s-1.16,2.36-3.06,2.3q-12.75-.39-25.49-.83c-1.81-.06-2.9-1.09-2.81-2.57s1.22-2.37,3-2.33c1.59,0,3.18.14,4.77.12a1.58,1.58,0,0,0,1.2-.56c1.31-2.83,2.53-5.7,3.82-8.66-.89-.41-1.66-.74-2.4-1.12a4.76,4.76,0,0,1-2.47-6.15c1-2.54,2.08-5.07,3.3-7.51A6.92,6.92,0,0,1,111.5,11c.59,0,1.18,0,1.87,0,.11-5.78,2.72-9.67,8.64-10.71a9.66,9.66,0,0,1,10,5.13c2.21,4.14,1.43,7.86-2.86,12.78a5.23,5.23,0,0,1,1,.62,7.18,7.18,0,0,1,1.83,8.31C131,29.3,130,31.48,129,33.65c-1.32,2.91-3.93,3.9-6.92,2.68ZM124.47,32c1-2.41,2.1-4.7,3-7.06A2.16,2.16,0,0,0,126.19,22c-4.53-2-9.09-4-13.66-6a2.1,2.1,0,0,0-2.87.86c-1.2,2.31-2.18,4.73-3.27,7.15Zm3.72-22a4.88,4.88,0,0,0-5-4.85,4.92,4.92,0,0,0,.14,9.83A4.86,4.86,0,0,0,128.19,9.93ZM107.82,39.21c1.88,0,3.35,0,4.82,0a1.12,1.12,0,0,0,.79-.53c.76-1.64,1.47-3.32,2.22-5l-4.5-2C110.06,34.14,109,36.47,107.82,39.21Z"/><path class="cls-1" d="M105.47,48.57h13a2.47,2.47,0,0,1,2.74,2c.36,1.65-.89,2.94-2.86,2.89-5.66-.15-11.32-.33-17-.5-2.88-.08-5.76-.16-8.64-.26a2.6,2.6,0,0,1-2.75-1.84,2.42,2.42,0,0,1,2.56-3.11h13Z"/><path class="cls-1" d="M101.69,61.74c-4.22,0-8.45,0-12.68,0-2,0-3.06-.94-3.06-2.49s1.16-2.53,3.2-2.46q12.61.38,25.21.81c1.93.07,3,1.09,2.93,2.62s-1.26,2.33-3.22,2.32c-4.12,0-8.25,0-12.37,0Z"/></g></g></svg>