<svg xmlns="http://www.w3.org/2000/svg" viewBox="0 0 198.42 136.27"><defs><style>.cls-1{fill:#f5c336;}</style></defs><g id="Capa_2" data-name="Capa 2"><g id="ELEMENTOS"><path class="cls-1" d="M164.49,82.3c-3,0-6,0-8.93,0-1.93,0-3.71-.51-3.73-2.88s1.72-2.93,3.67-2.94q9.06,0,18.12,0c2,0,3.65.68,3.6,3s-1.67,2.8-3.54,2.82C170.62,82.33,167.56,82.3,164.49,82.3Z"/><path class="cls-1" d="M164.58,57.45c3.06,0,6.12,0,9.19,0,1.94,0,3.42.75,3.45,2.88s-1.53,2.92-3.42,2.93q-9.2.06-18.38,0c-1.95,0-3.69-.65-3.59-3s1.84-2.8,3.81-2.8Z"/><path class="cls-1" d="M164.56,101.31h-8.93c-2,0-3.71-.48-3.8-2.81s1.65-3,3.6-3q9.18-.06,18.38,0c1.89,0,3.44.76,3.41,2.93s-1.54,2.87-3.47,2.88Z"/><path class="cls-1" d="M164.64,38.43h9.19c2,0,3.38.85,3.38,3s-1.37,2.84-3.22,2.85c-6.3,0-12.6,0-18.9,0-1.8,0-3.24-.78-3.25-2.81s1.37-3,3.35-3Z"/><path class="cls-1" d="M145.27,77.14a3.31,3.31,0,0,1-1.42,2.58c-2.44,2.12-4.88,4.22-7.31,6.35-1.18,1-2.59,1.7-3.95.79-1.8-1.19-4-2.3-4.24-4.78-.22-2,2.3-3.54,4.18-2.42,1.38.82,2.07.41,3-.45,1.7-1.54,3.47-3,5.25-4.45a2.49,2.49,0,0,1,3.07-.16A2.6,2.6,0,0,1,145.27,77.14Z"/><path class="cls-1" d="M134.14,46.15c-1.76.06-5.6-3.23-5.81-4.9a2.81,2.81,0,0,1,4.16-2.74c1.53.89,2.26.3,3.23-.58,1.45-1.32,2.91-2.62,4.42-3.85s3.19-1.53,4.52.07.75,3-.66,4.26c-2.62,2.29-5.27,4.56-7.91,6.83A2.83,2.83,0,0,1,134.14,46.15Z"/><path class="cls-1" d="M137.07,92.79a8.32,8.32,0,1,0,8.24,8.34A8.34,8.34,0,0,0,137.07,92.79Zm0,10.76a2.43,2.43,0,1,1,.09-4.86,2.27,2.27,0,0,1,2.33,2.48A2.23,2.23,0,0,1,137.05,103.55Z"/><path class="cls-1" d="M137,52.08a8.3,8.3,0,1,0,8.28,8.27A8.26,8.26,0,0,0,137,52.08Zm.11,10.76c-1.56-.12-2.62-.94-2.6-2.5a2.35,2.35,0,0,1,2.38-2.45,2.27,2.27,0,0,1,2.55,2.47A2.33,2.33,0,0,1,137.14,62.84Z"/><path class="cls-1" d="M198.41,15.38C198.41,8.47,195,5.07,188,5.06c-3,0-6,0-9,0-1.17,0-2-.07-2.52-1.45A5.63,5.63,0,0,0,170.88,0Q153.35,0,135.8,0a5.68,5.68,0,0,0-5.68,3.56,2.2,2.2,0,0,1-2.5,1.52c-3-.07-6,0-9,0-7,0-10.38,3.34-10.4,10.27a37.13,37.13,0,0,0,0,4.6c.26,2.15-.5,2.65-2.63,2.64-19.29-.09-38.58-.07-57.87,0-6.92,0-11.49,3.82-12.72,10.5-.28,1.51-.41,3-.61,4.56-1,7.35-1.93,14.69-2.95,22.47-1.79-1.8-2.22-4.94-4.13-4.89-3.75.09-5.25-2.1-6.83-4.67a2.68,2.68,0,0,0-1.18-.94c-5.16-2.23-10.47-2.42-15.49,0C.41,51.28-.77,56.28.49,61A7.88,7.88,0,0,0,8,67.12c1.88.08,3.76,0,5.63,0,4.24.2,7.27-1.54,8.91-5.47.75-1.79,1.69-1.48,2.57-.31,1,1.35,1.77,2.91,2.75,4.3.78,1.12.55,1.66-.62,2.33a13.45,13.45,0,0,0-6.81,9.44,124.21,124.21,0,0,0-2.41,26.45,13.48,13.48,0,0,0,5.81,10.86,3.13,3.13,0,0,1,1.44,2.94c-.08,3.33-.09,6.66,0,10,.12,5.09,3.52,8.46,8.59,8.52,4.86.07,9.73.06,14.59,0,4.58,0,7.66-2.53,8.41-7,.23-1.38.71-1.69,1.92-1.59a22,22,0,0,0,2.3,0c5.22-.07,8-2.63,8-7.82,0-2.08.75-2.3,2.51-2.29,11.18.07,22.36.14,33.54,0,2.76,0,3.27.8,3.21,3.35-.17,7.52,3.13,10.69,10.7,10.69h68.87c7.17,0,10.52-3.34,10.52-10.47q0-20.1,0-40.19Q198.41,48.15,198.41,15.38Zm-186.84,46H9.78c-3.18,0-3.86-.67-3.87-3.63S6.57,54,9.66,54c1.54,0,3.07,0,4.61,0,2,0,2.88.92,2.9,3C17.21,61.1,17,61.34,11.57,61.34ZM42.12,30.82c1.42-2.05,3.59-2.47,5.86-2.48,19.52,0,39,0,58.55-.05,2.19,0,1.7,1.27,1.73,2.47s.3,2.4-1.83,2.37c-10.57-.12-21.14-.06-31.71-.06s-21,0-31.44,0c-.65,0-1.55.38-1.9-.25S41.71,31.42,42.12,30.82Zm9.27,88.41c-.11,2.72,0,5.45,0,8.17a2.68,2.68,0,0,1-3,3c-4.77,0-9.54,0-14.31,0-1.94,0-3-1-2.94-3,0-2.72.05-5.45,0-8.17,0-1.23.4-1.64,1.61-1.61,2.81.06,5.62,0,8.43,0s5.62,0,8.43,0C50.79,117.57,51.46,117.76,51.39,119.23Zm8.21,2.65c-1.48.11-2.61.23-2.67-2.08-.09-3.07,1.86-2,3.39-2.2,1.16.27,3-.92,3,1.93C63.25,122.64,61.22,121.76,59.6,121.88Zm46.56-10.06c-12.29-.06-24.57,0-36.86,0-12.12,0-24.24,0-36.36,0-4.85,0-8.38-2.88-9.15-7.26-.23-1.3-.23-2.18,1.66-2.16,8.2.11,16.39.07,24.58,0a2.63,2.63,0,0,1,2.35,1.14,10.39,10.39,0,0,0,8.71,4q19.84,0,39.69,0c2,0,3.61-.48,3.84-2.78.19-1.9-1.21-3-3.85-3-12.63,0-25.26,0-37.89,0-6,0-7.29-1.41-6.47-7.32.16-1.18.31-2.37.5-3.54.74-4.71,1.92-5.71,6.75-5.71h36.1c.77,0,1.54,0,2.3,0a2.57,2.57,0,0,0,2.55-2.68,2.65,2.65,0,0,0-2.32-2.9,11,11,0,0,0-2.3-.11H63.13c-7.24,0-10.63,2.89-11.81,10a23.58,23.58,0,0,0-.74,4.27c.06,2.63-1.27,2.9-3.49,2.86-7-.14-14-.09-21,0-1.61,0-2.14-.23-2-2.08.44-4.84,1-9.66,1.78-14.46.91-5.38,4-8.14,9.4-8.14,23.64,0,47.27,0,70.91-.06,1.76,0,2.08.55,2.07,2.16q-.09,17.92,0,35.84C108.32,111.51,107.76,111.83,106.16,111.82Zm0-45.8c-11.27-.06-22.53,0-33.8,0-10.84,0-21.68-.06-32.52.05-2.39,0-3.34-.15-2.85-3.05,1.28-7.48,2.14-15,3-22.56.17-1.39.73-1.6,1.93-1.59q32.26,0,64.53,0c1.47,0,1.84.42,1.83,1.85-.07,7.76-.09,15.53,0,23.3C108.33,65.75,107.7,66,106.12,66Zm29.21-47.73c.14-3.58.1-7.16,0-10.74,0-1.32.34-1.76,1.71-1.76q16.24.09,32.49,0c1.33,0,1.78.34,1.75,1.71q-.13,5.49,0,11c0,1.33-.36,1.72-1.71,1.7-5.45-.07-10.91,0-16.37,0-5.29,0-10.58-.05-15.87,0C135.85,20.24,135.27,19.94,135.33,18.29ZM192.68,120.6c0,4.41-.76,5.16-5.27,5.16H119c-4.29,0-5.1-.81-5.1-5.08V16c0-4.26.82-5.07,5.1-5.07,2.91,0,5.81.09,8.71,0,1.64-.07,1.73.74,1.76,2s-.31,2-1.84,1.93c-2.13-.12-4.27,0-6.4,0s-3.3,1.12-3.3,3.32q0,17.93,0,35.85c0,2,1,3.28,2.81,3.28,2,0,2.88-1.46,2.88-3.48,0-10.25,0-20.49,0-30.73,0-.8-.8-2.56.9-2.32s4.14-1.64,5.26,1.35A5.69,5.69,0,0,0,135.54,26q17.79,0,35.6,0a5.74,5.74,0,0,0,5.67-4c1.12-2.9,3.51-1.08,5.26-1.3s.89,1.55.89,2.37c0,30.21,0,60.43.09,90.65,0,1.93-.48,2.41-2.4,2.4q-27.4-.12-54.81,0c-1.78,0-2.26-.44-2.26-2.24.08-15.28,0-30.56,0-45.84a14.44,14.44,0,0,0-.09-2.55,2.78,2.78,0,0,0-5.5,0,17.62,17.62,0,0,0-.07,2.3q0,24.72,0,49.42c0,4.1.58,4.67,4.78,4.67H184c4.11,0,4.72-.62,4.72-4.75V19.56c0-4.27-.54-4.8-4.92-4.8-1.53,0-3.07-.08-4.6,0S177,14.57,177,12.87c0-1.55.42-2.09,2-2,3.07.13,6.15,0,9.22,0,3.43,0,4.4,1,4.4,4.47q0,28.56,0,57.11Z"/></g></g></svg>